# xmcd CD database file
#
# Track frame offsets:
#	182
#	10427
#	22697
#	34367
#	45932
#	63375
#	73640
#	85820
#	98940
#	112620
#	127890
#	139380
#	151027
#	163470
#
# Disc length: 2418 seconds
#
# Revision: 2
# Processed by: cddbd v1.5PL3 Copyright (c) Steve Scherf et al.
# Submitted via: CDex 1.51
#
DISCID=ac09700e
DTITLE=John Lee Hooker - The John Lee Hooker Collection
DYEAR=1988
DGENRE=Blues
TTITLE0=Dimples
TTITLE1=I'm In The Mood
TTITLE2=Boogie Chillun
TTITLE3=Boom Boom
TTITLE4=Blues Before Sunrise
TTITLE5=Want Ad Blues
TTITLE6=Crawling King Snake
TTITLE7=Hobo blues
TTITLE8=Time is Marching
TTITLE9=Tupelo
TTITLE10=Little Wheel
TTITLE11=Shake, Holler And Run
TTITLE12=Whiskey And Wimmen
TTITLE13=Wednesday Evening Blues
EXTD=YEAR: 1988
EXTT0=
EXTT1=
EXTT2=
EXTT3=
EXTT4=
EXTT5=
EXTT6=
EXTT7=
EXTT8=
EXTT9=
EXTT10=
EXTT11=
EXTT12=
EXTT13=
PLAYORDER=
